<mxfile host="app.diagrams.net" modified="2022-04-05T08:50:58.789Z" agent="5.0 (Windows)" etag="u0lTtP4mK2RJ-jezhJAs" version="17.4.0" type="github">
  <diagram id="R2lEEEUBdFMjLlhIrx00" name="ER-diagram">
    <mxGraphModel dx="1419" dy="1340" grid="1" gridSize="10" guides="1" tooltips="1" connect="1" arrows="1" fold="1" page="1" pageScale="1" pageWidth="850" pageHeight="1100" math="0" shadow="0" extFonts="Permanent Marker^https://fonts.googleapis.com/css?family=Permanent+Marker">
      <root>
        <mxCell id="0" />
        <mxCell id="1" parent="0" />
        <mxCell id="cfTX0fv1FB1LnRoCR7CJ-1" value="User" style="rounded=0;whiteSpace=wrap;html=1;" vertex="1" parent="1">
          <mxGeometry x="283" y="362" width="120" height="60" as="geometry" />
        </mxCell>
        <mxCell id="cfTX0fv1FB1LnRoCR7CJ-3" value="Card" style="rounded=0;whiteSpace=wrap;html=1;" vertex="1" parent="1">
          <mxGeometry x="668" y="654" width="120" height="60" as="geometry" />
        </mxCell>
        <mxCell id="cfTX0fv1FB1LnRoCR7CJ-6" value="Column" style="rounded=0;whiteSpace=wrap;html=1;" vertex="1" parent="1">
          <mxGeometry x="283" y="654" width="120" height="60" as="geometry" />
        </mxCell>
        <mxCell id="cfTX0fv1FB1LnRoCR7CJ-7" value="Add" style="rhombus;whiteSpace=wrap;html=1;" vertex="1" parent="1">
          <mxGeometry x="471" y="644" width="120" height="80" as="geometry" />
        </mxCell>
        <mxCell id="cfTX0fv1FB1LnRoCR7CJ-8" value="" style="endArrow=none;html=1;rounded=0;exitX=1;exitY=0.5;exitDx=0;exitDy=0;entryX=0;entryY=0.5;entryDx=0;entryDy=0;" edge="1" parent="1" source="cfTX0fv1FB1LnRoCR7CJ-6" target="cfTX0fv1FB1LnRoCR7CJ-7">
          <mxGeometry width="50" height="50" relative="1" as="geometry">
            <mxPoint x="469" y="684" as="sourcePoint" />
            <mxPoint x="519" y="634" as="targetPoint" />
          </mxGeometry>
        </mxCell>
        <mxCell id="cfTX0fv1FB1LnRoCR7CJ-9" value="" style="endArrow=none;html=1;rounded=0;entryX=0;entryY=0.5;entryDx=0;entryDy=0;exitX=1;exitY=0.5;exitDx=0;exitDy=0;" edge="1" parent="1" source="cfTX0fv1FB1LnRoCR7CJ-7" target="cfTX0fv1FB1LnRoCR7CJ-3">
          <mxGeometry width="50" height="50" relative="1" as="geometry">
            <mxPoint x="469" y="684" as="sourcePoint" />
            <mxPoint x="519" y="634" as="targetPoint" />
          </mxGeometry>
        </mxCell>
        <mxCell id="cfTX0fv1FB1LnRoCR7CJ-10" value="1" style="text;html=1;strokeColor=none;fillColor=none;align=center;verticalAlign=middle;whiteSpace=wrap;rounded=0;" vertex="1" parent="1">
          <mxGeometry x="389" y="654" width="60" height="30" as="geometry" />
        </mxCell>
        <mxCell id="cfTX0fv1FB1LnRoCR7CJ-11" value="N" style="text;html=1;strokeColor=none;fillColor=none;align=center;verticalAlign=middle;whiteSpace=wrap;rounded=0;" vertex="1" parent="1">
          <mxGeometry x="627" y="654" width="60" height="30" as="geometry" />
        </mxCell>
        <mxCell id="cfTX0fv1FB1LnRoCR7CJ-14" value="History" style="rounded=0;whiteSpace=wrap;html=1;" vertex="1" parent="1">
          <mxGeometry x="668" y="365" width="120" height="60" as="geometry" />
        </mxCell>
        <mxCell id="cfTX0fv1FB1LnRoCR7CJ-15" value="card_name" style="ellipse;whiteSpace=wrap;html=1;" vertex="1" parent="1">
          <mxGeometry x="617" y="187" width="120" height="80" as="geometry" />
        </mxCell>
        <mxCell id="cfTX0fv1FB1LnRoCR7CJ-17" value="action" style="ellipse;whiteSpace=wrap;html=1;" vertex="1" parent="1">
          <mxGeometry x="876" y="438" width="120" height="80" as="geometry" />
        </mxCell>
        <mxCell id="cfTX0fv1FB1LnRoCR7CJ-26" value="1" style="text;html=1;strokeColor=none;fillColor=none;align=center;verticalAlign=middle;whiteSpace=wrap;rounded=0;" vertex="1" parent="1">
          <mxGeometry x="389" y="365" width="60" height="30" as="geometry" />
        </mxCell>
        <mxCell id="cfTX0fv1FB1LnRoCR7CJ-27" value="N" style="text;html=1;strokeColor=none;fillColor=none;align=center;verticalAlign=middle;whiteSpace=wrap;rounded=0;" vertex="1" parent="1">
          <mxGeometry x="627" y="362" width="60" height="30" as="geometry" />
        </mxCell>
        <mxCell id="cfTX0fv1FB1LnRoCR7CJ-31" value="" style="endArrow=none;html=1;rounded=0;exitX=0.5;exitY=0;exitDx=0;exitDy=0;entryX=0.5;entryY=1;entryDx=0;entryDy=0;" edge="1" parent="1" source="cfTX0fv1FB1LnRoCR7CJ-14" target="cfTX0fv1FB1LnRoCR7CJ-15">
          <mxGeometry width="50" height="50" relative="1" as="geometry">
            <mxPoint x="762" y="311" as="sourcePoint" />
            <mxPoint x="812" y="261" as="targetPoint" />
          </mxGeometry>
        </mxCell>
        <mxCell id="cfTX0fv1FB1LnRoCR7CJ-32" value="" style="endArrow=none;html=1;rounded=0;exitX=1;exitY=1;exitDx=0;exitDy=0;entryX=0.043;entryY=0.294;entryDx=0;entryDy=0;entryPerimeter=0;" edge="1" parent="1" source="cfTX0fv1FB1LnRoCR7CJ-14" target="cfTX0fv1FB1LnRoCR7CJ-17">
          <mxGeometry width="50" height="50" relative="1" as="geometry">
            <mxPoint x="794" y="350" as="sourcePoint" />
            <mxPoint x="650.9999999999999" y="294" as="targetPoint" />
          </mxGeometry>
        </mxCell>
        <mxCell id="cfTX0fv1FB1LnRoCR7CJ-37" value="Add" style="rhombus;whiteSpace=wrap;html=1;" vertex="1" parent="1">
          <mxGeometry x="283" y="486" width="120" height="80" as="geometry" />
        </mxCell>
        <mxCell id="cfTX0fv1FB1LnRoCR7CJ-39" value="" style="endArrow=none;html=1;rounded=0;entryX=0.5;entryY=1;entryDx=0;entryDy=0;exitX=0.5;exitY=0;exitDx=0;exitDy=0;" edge="1" parent="1" source="cfTX0fv1FB1LnRoCR7CJ-6" target="cfTX0fv1FB1LnRoCR7CJ-37">
          <mxGeometry width="50" height="50" relative="1" as="geometry">
            <mxPoint x="329" y="557" as="sourcePoint" />
            <mxPoint x="379" y="507" as="targetPoint" />
          </mxGeometry>
        </mxCell>
        <mxCell id="cfTX0fv1FB1LnRoCR7CJ-40" value="" style="endArrow=none;html=1;rounded=0;entryX=0.5;entryY=1;entryDx=0;entryDy=0;exitX=0.5;exitY=0;exitDx=0;exitDy=0;" edge="1" parent="1" source="cfTX0fv1FB1LnRoCR7CJ-37" target="cfTX0fv1FB1LnRoCR7CJ-1">
          <mxGeometry width="50" height="50" relative="1" as="geometry">
            <mxPoint x="161" y="617" as="sourcePoint" />
            <mxPoint x="210.92000000000007" y="547.9200000000001" as="targetPoint" />
          </mxGeometry>
        </mxCell>
        <mxCell id="cfTX0fv1FB1LnRoCR7CJ-43" value="N" style="text;html=1;strokeColor=none;fillColor=none;align=center;verticalAlign=middle;whiteSpace=wrap;rounded=0;" vertex="1" parent="1">
          <mxGeometry x="294" y="624" width="60" height="30" as="geometry" />
        </mxCell>
        <mxCell id="cfTX0fv1FB1LnRoCR7CJ-44" value="1" style="text;html=1;strokeColor=none;fillColor=none;align=center;verticalAlign=middle;whiteSpace=wrap;rounded=0;" vertex="1" parent="1">
          <mxGeometry x="297" y="420" width="60" height="30" as="geometry" />
        </mxCell>
        <mxCell id="cfTX0fv1FB1LnRoCR7CJ-48" value="Title" style="ellipse;whiteSpace=wrap;html=1;" vertex="1" parent="1">
          <mxGeometry x="737" y="840" width="120" height="80" as="geometry" />
        </mxCell>
        <mxCell id="cfTX0fv1FB1LnRoCR7CJ-49" value="content" style="ellipse;whiteSpace=wrap;html=1;" vertex="1" parent="1">
          <mxGeometry x="870" y="770" width="120" height="80" as="geometry" />
        </mxCell>
        <mxCell id="cfTX0fv1FB1LnRoCR7CJ-50" value="" style="endArrow=none;html=1;rounded=0;entryX=0.75;entryY=1;entryDx=0;entryDy=0;exitX=0.407;exitY=-0.008;exitDx=0;exitDy=0;exitPerimeter=0;" edge="1" parent="1" source="cfTX0fv1FB1LnRoCR7CJ-48" target="cfTX0fv1FB1LnRoCR7CJ-3">
          <mxGeometry width="50" height="50" relative="1" as="geometry">
            <mxPoint x="394" y="605" as="sourcePoint" />
            <mxPoint x="444" y="555" as="targetPoint" />
          </mxGeometry>
        </mxCell>
        <mxCell id="cfTX0fv1FB1LnRoCR7CJ-51" value="" style="endArrow=none;html=1;rounded=0;entryX=1;entryY=1;entryDx=0;entryDy=0;exitX=0.047;exitY=0.322;exitDx=0;exitDy=0;exitPerimeter=0;" edge="1" parent="1" source="cfTX0fv1FB1LnRoCR7CJ-49" target="cfTX0fv1FB1LnRoCR7CJ-3">
          <mxGeometry width="50" height="50" relative="1" as="geometry">
            <mxPoint x="771.6400000000001" y="794.6000000000001" as="sourcePoint" />
            <mxPoint x="739" y="724" as="targetPoint" />
          </mxGeometry>
        </mxCell>
        <mxCell id="cfTX0fv1FB1LnRoCR7CJ-52" value="username" style="ellipse;whiteSpace=wrap;html=1;" vertex="1" parent="1">
          <mxGeometry x="70" y="337" width="120" height="80" as="geometry" />
        </mxCell>
        <mxCell id="cfTX0fv1FB1LnRoCR7CJ-53" value="" style="endArrow=none;html=1;rounded=0;entryX=1;entryY=0.5;entryDx=0;entryDy=0;exitX=0;exitY=0.5;exitDx=0;exitDy=0;" edge="1" parent="1" source="cfTX0fv1FB1LnRoCR7CJ-1" target="cfTX0fv1FB1LnRoCR7CJ-52">
          <mxGeometry width="50" height="50" relative="1" as="geometry">
            <mxPoint x="363" y="506" as="sourcePoint" />
            <mxPoint x="413" y="456" as="targetPoint" />
          </mxGeometry>
        </mxCell>
        <mxCell id="cfTX0fv1FB1LnRoCR7CJ-54" value="profile_image" style="ellipse;whiteSpace=wrap;html=1;" vertex="1" parent="1">
          <mxGeometry x="264" y="187" width="120" height="80" as="geometry" />
        </mxCell>
        <mxCell id="cfTX0fv1FB1LnRoCR7CJ-55" value="" style="endArrow=none;html=1;rounded=0;entryX=0.5;entryY=1;entryDx=0;entryDy=0;" edge="1" parent="1" source="cfTX0fv1FB1LnRoCR7CJ-1" target="cfTX0fv1FB1LnRoCR7CJ-54">
          <mxGeometry width="50" height="50" relative="1" as="geometry">
            <mxPoint x="413" y="387" as="sourcePoint" />
            <mxPoint x="481.9999999999998" y="387" as="targetPoint" />
          </mxGeometry>
        </mxCell>
        <mxCell id="cfTX0fv1FB1LnRoCR7CJ-56" value="userId" style="ellipse;whiteSpace=wrap;html=1;" vertex="1" parent="1">
          <mxGeometry x="116" y="220" width="120" height="80" as="geometry" />
        </mxCell>
        <mxCell id="cfTX0fv1FB1LnRoCR7CJ-57" value="" style="endArrow=none;html=1;rounded=0;entryX=1;entryY=1;entryDx=0;entryDy=0;exitX=0.25;exitY=0;exitDx=0;exitDy=0;" edge="1" parent="1" source="cfTX0fv1FB1LnRoCR7CJ-1" target="cfTX0fv1FB1LnRoCR7CJ-56">
          <mxGeometry width="50" height="50" relative="1" as="geometry">
            <mxPoint x="413" y="372" as="sourcePoint" />
            <mxPoint x="499.57359312880703" y="322.2842712474619" as="targetPoint" />
          </mxGeometry>
        </mxCell>
        <mxCell id="cfTX0fv1FB1LnRoCR7CJ-58" value="column_name" style="ellipse;whiteSpace=wrap;html=1;" vertex="1" parent="1">
          <mxGeometry x="756" y="182" width="120" height="80" as="geometry" />
        </mxCell>
        <mxCell id="cfTX0fv1FB1LnRoCR7CJ-59" value="field" style="ellipse;whiteSpace=wrap;html=1;" vertex="1" parent="1">
          <mxGeometry x="876" y="246" width="120" height="80" as="geometry" />
        </mxCell>
        <mxCell id="cfTX0fv1FB1LnRoCR7CJ-60" value="" style="endArrow=none;html=1;rounded=0;entryX=0.349;entryY=0.994;entryDx=0;entryDy=0;exitX=0.75;exitY=0;exitDx=0;exitDy=0;entryPerimeter=0;" edge="1" parent="1" source="cfTX0fv1FB1LnRoCR7CJ-14" target="cfTX0fv1FB1LnRoCR7CJ-58">
          <mxGeometry width="50" height="50" relative="1" as="geometry">
            <mxPoint x="808" y="453" as="sourcePoint" />
            <mxPoint x="858" y="403" as="targetPoint" />
          </mxGeometry>
        </mxCell>
        <mxCell id="cfTX0fv1FB1LnRoCR7CJ-61" value="" style="endArrow=none;html=1;rounded=0;entryX=0;entryY=1;entryDx=0;entryDy=0;exitX=1;exitY=0;exitDx=0;exitDy=0;" edge="1" parent="1" source="cfTX0fv1FB1LnRoCR7CJ-14" target="cfTX0fv1FB1LnRoCR7CJ-59">
          <mxGeometry width="50" height="50" relative="1" as="geometry">
            <mxPoint x="764" y="350" as="sourcePoint" />
            <mxPoint x="702" y="230" as="targetPoint" />
          </mxGeometry>
        </mxCell>
        <mxCell id="cfTX0fv1FB1LnRoCR7CJ-62" value="old_value" style="ellipse;whiteSpace=wrap;html=1;" vertex="1" parent="1">
          <mxGeometry x="905" y="340" width="120" height="80" as="geometry" />
        </mxCell>
        <mxCell id="cfTX0fv1FB1LnRoCR7CJ-63" value="" style="endArrow=none;html=1;rounded=0;exitX=1.006;exitY=0.631;exitDx=0;exitDy=0;entryX=0;entryY=0.5;entryDx=0;entryDy=0;exitPerimeter=0;" edge="1" parent="1" source="cfTX0fv1FB1LnRoCR7CJ-14" target="cfTX0fv1FB1LnRoCR7CJ-62">
          <mxGeometry width="50" height="50" relative="1" as="geometry">
            <mxPoint x="854" y="365" as="sourcePoint" />
            <mxPoint x="962.4399999999998" y="332.0799999999999" as="targetPoint" />
          </mxGeometry>
        </mxCell>
        <mxCell id="cfTX0fv1FB1LnRoCR7CJ-65" value="column_name" style="ellipse;whiteSpace=wrap;html=1;" vertex="1" parent="1">
          <mxGeometry x="86" y="644" width="120" height="80" as="geometry" />
        </mxCell>
        <mxCell id="cfTX0fv1FB1LnRoCR7CJ-67" value="" style="endArrow=none;html=1;rounded=0;entryX=0;entryY=0.5;entryDx=0;entryDy=0;exitX=1;exitY=0.5;exitDx=0;exitDy=0;" edge="1" parent="1" source="cfTX0fv1FB1LnRoCR7CJ-65" target="cfTX0fv1FB1LnRoCR7CJ-6">
          <mxGeometry width="50" height="50" relative="1" as="geometry">
            <mxPoint x="86" y="545" as="sourcePoint" />
            <mxPoint x="136" y="495" as="targetPoint" />
          </mxGeometry>
        </mxCell>
        <mxCell id="cfTX0fv1FB1LnRoCR7CJ-68" value="column_order" style="ellipse;whiteSpace=wrap;html=1;" vertex="1" parent="1">
          <mxGeometry x="116" y="760" width="120" height="80" as="geometry" />
        </mxCell>
        <mxCell id="cfTX0fv1FB1LnRoCR7CJ-69" value="card_order" style="ellipse;whiteSpace=wrap;html=1;" vertex="1" parent="1">
          <mxGeometry x="905" y="644" width="120" height="80" as="geometry" />
        </mxCell>
        <mxCell id="cfTX0fv1FB1LnRoCR7CJ-70" value="" style="endArrow=none;html=1;rounded=0;entryX=0;entryY=0.5;entryDx=0;entryDy=0;exitX=1;exitY=0.5;exitDx=0;exitDy=0;" edge="1" parent="1" source="cfTX0fv1FB1LnRoCR7CJ-3" target="cfTX0fv1FB1LnRoCR7CJ-69">
          <mxGeometry width="50" height="50" relative="1" as="geometry">
            <mxPoint x="490" y="520" as="sourcePoint" />
            <mxPoint x="540" y="470" as="targetPoint" />
          </mxGeometry>
        </mxCell>
        <mxCell id="cfTX0fv1FB1LnRoCR7CJ-71" value="" style="endArrow=none;html=1;rounded=0;entryX=0.25;entryY=1;entryDx=0;entryDy=0;exitX=1;exitY=0;exitDx=0;exitDy=0;" edge="1" parent="1" source="cfTX0fv1FB1LnRoCR7CJ-68" target="cfTX0fv1FB1LnRoCR7CJ-6">
          <mxGeometry width="50" height="50" relative="1" as="geometry">
            <mxPoint x="490" y="520" as="sourcePoint" />
            <mxPoint x="540" y="470" as="targetPoint" />
          </mxGeometry>
        </mxCell>
        <mxCell id="cfTX0fv1FB1LnRoCR7CJ-72" value="Event" style="rhombus;whiteSpace=wrap;html=1;" vertex="1" parent="1">
          <mxGeometry x="471" y="355" width="120" height="80" as="geometry" />
        </mxCell>
        <mxCell id="cfTX0fv1FB1LnRoCR7CJ-75" value="" style="endArrow=none;html=1;rounded=0;entryX=0.25;entryY=1;entryDx=0;entryDy=0;exitX=0;exitY=0.5;exitDx=0;exitDy=0;" edge="1" parent="1" source="cfTX0fv1FB1LnRoCR7CJ-72" target="cfTX0fv1FB1LnRoCR7CJ-26">
          <mxGeometry width="50" height="50" relative="1" as="geometry">
            <mxPoint x="353" y="496" as="sourcePoint" />
            <mxPoint x="353" y="432" as="targetPoint" />
          </mxGeometry>
        </mxCell>
        <mxCell id="cfTX0fv1FB1LnRoCR7CJ-76" value="" style="endArrow=none;html=1;rounded=0;entryX=1;entryY=0.5;entryDx=0;entryDy=0;exitX=0;exitY=0.5;exitDx=0;exitDy=0;" edge="1" parent="1" source="cfTX0fv1FB1LnRoCR7CJ-14" target="cfTX0fv1FB1LnRoCR7CJ-72">
          <mxGeometry width="50" height="50" relative="1" as="geometry">
            <mxPoint x="481" y="405" as="sourcePoint" />
            <mxPoint x="414" y="405" as="targetPoint" />
          </mxGeometry>
        </mxCell>
        <mxCell id="cfTX0fv1FB1LnRoCR7CJ-77" value="deleted" style="ellipse;whiteSpace=wrap;html=1;" vertex="1" parent="1">
          <mxGeometry x="410" y="200" width="120" height="80" as="geometry" />
        </mxCell>
        <mxCell id="cfTX0fv1FB1LnRoCR7CJ-78" value="" style="endArrow=none;html=1;rounded=0;entryX=0.25;entryY=0.913;entryDx=0;entryDy=0;entryPerimeter=0;exitX=0.75;exitY=0;exitDx=0;exitDy=0;" edge="1" parent="1" source="cfTX0fv1FB1LnRoCR7CJ-1" target="cfTX0fv1FB1LnRoCR7CJ-77">
          <mxGeometry width="50" height="50" relative="1" as="geometry">
            <mxPoint x="490" y="550" as="sourcePoint" />
            <mxPoint x="540" y="500" as="targetPoint" />
          </mxGeometry>
        </mxCell>
        <mxCell id="cfTX0fv1FB1LnRoCR7CJ-79" value="deleted" style="ellipse;whiteSpace=wrap;html=1;" vertex="1" parent="1">
          <mxGeometry x="788" y="518" width="120" height="80" as="geometry" />
        </mxCell>
        <mxCell id="cfTX0fv1FB1LnRoCR7CJ-80" value="" style="endArrow=none;html=1;rounded=0;entryX=0.312;entryY=0.029;entryDx=0;entryDy=0;entryPerimeter=0;exitX=0.75;exitY=1;exitDx=0;exitDy=0;" edge="1" parent="1" source="cfTX0fv1FB1LnRoCR7CJ-14" target="cfTX0fv1FB1LnRoCR7CJ-79">
          <mxGeometry width="50" height="50" relative="1" as="geometry">
            <mxPoint x="383" y="372" as="sourcePoint" />
            <mxPoint x="450" y="283.03999999999996" as="targetPoint" />
          </mxGeometry>
        </mxCell>
        <mxCell id="cfTX0fv1FB1LnRoCR7CJ-82" value="deleted" style="ellipse;whiteSpace=wrap;html=1;" vertex="1" parent="1">
          <mxGeometry x="591" y="830" width="120" height="80" as="geometry" />
        </mxCell>
        <mxCell id="cfTX0fv1FB1LnRoCR7CJ-83" value="" style="endArrow=none;html=1;rounded=0;entryX=0.5;entryY=1;entryDx=0;entryDy=0;" edge="1" parent="1" source="cfTX0fv1FB1LnRoCR7CJ-82" target="cfTX0fv1FB1LnRoCR7CJ-3">
          <mxGeometry width="50" height="50" relative="1" as="geometry">
            <mxPoint x="768" y="435" as="sourcePoint" />
            <mxPoint x="827.44" y="522.3200000000002" as="targetPoint" />
          </mxGeometry>
        </mxCell>
        <mxCell id="cfTX0fv1FB1LnRoCR7CJ-84" value="deleted" style="ellipse;whiteSpace=wrap;html=1;" vertex="1" parent="1">
          <mxGeometry x="250" y="820" width="120" height="80" as="geometry" />
        </mxCell>
        <mxCell id="cfTX0fv1FB1LnRoCR7CJ-85" value="" style="endArrow=none;html=1;rounded=0;entryX=0.5;entryY=1;entryDx=0;entryDy=0;exitX=0.5;exitY=0;exitDx=0;exitDy=0;" edge="1" parent="1" source="cfTX0fv1FB1LnRoCR7CJ-84" target="cfTX0fv1FB1LnRoCR7CJ-6">
          <mxGeometry width="50" height="50" relative="1" as="geometry">
            <mxPoint x="228.42640687119297" y="781.7157287525376" as="sourcePoint" />
            <mxPoint x="323" y="724" as="targetPoint" />
          </mxGeometry>
        </mxCell>
      </root>
    </mxGraphModel>
  </diagram>
</mxfile>
